<svg width="11" height="10" viewBox="0 0 11 10" fill="none" xmlns="http://www.w3.org/2000/svg">
<path fill-rule="evenodd" clip-rule="evenodd" d="M2.24715 8.88889H9.24943C9.57037 8.88889 9.83296 8.63889 9.83296 8.33333V5.55556C9.83296 5.25 10.0955 5 10.4165 5C10.7374 5 11 5.25 11 5.55556V8.88889C11 9.5 10.4748 10 9.83296 10H1.66363C1.02175 10 0.496582 9.5 0.496582 8.88889V1.11111C0.496582 0.5 1.01592 0 1.66363 0H5.16477C5.48571 0 5.74829 0.25 5.74829 0.555556C5.74829 0.861111 5.48571 1.11111 5.16477 1.11111H2.24715C1.92621 1.11111 1.66363 1.36111 1.66363 1.66667V8.33333C1.66363 8.63889 1.92621 8.88889 2.24715 8.88889ZM7.49891 1.11111C7.17797 1.11111 6.91538 0.861111 6.91538 0.555556C6.91538 0.25 7.17797 0 7.49891 0H11.0001V3.33333C11.0001 3.63889 10.7375 3.88889 10.4165 3.88889C10.0956 3.88889 9.833 3.63889 9.833 3.33333V1.89444L4.50543 6.96667C4.27786 7.18333 3.91024 7.18333 3.68266 6.96667C3.45509 6.75 3.45509 6.4 3.68266 6.18333L9.01023 1.11111H7.49891Z" fill="white"/>
</svg>
